<mxfile host="app.diagrams.net" agent="Mozilla/5.0 (Macintosh; Intel Mac OS X 10_15_7) AppleWebKit/537.36 (KHTML, like Gecko) Chrome/130.0.0.0 Safari/537.36" version="24.8.6">
  <diagram name="第 1 页" id="FwyyAOdfyTf-x8lWeda7">
    <mxGraphModel dx="1434" dy="795" grid="1" gridSize="10" guides="1" tooltips="1" connect="1" arrows="1" fold="1" page="1" pageScale="1" pageWidth="1600" pageHeight="1200" math="0" shadow="0">
      <root>
        <mxCell id="0" />
        <mxCell id="1" parent="0" />
        <mxCell id="_c1fTc9PCPGEMTXQCOkE-4" value="" style="edgeStyle=orthogonalEdgeStyle;rounded=0;orthogonalLoop=1;jettySize=auto;html=1;" edge="1" parent="1" source="_c1fTc9PCPGEMTXQCOkE-1" target="_c1fTc9PCPGEMTXQCOkE-3">
          <mxGeometry relative="1" as="geometry" />
        </mxCell>
        <mxCell id="_c1fTc9PCPGEMTXQCOkE-1" value="房间号 入口" style="rounded=0;whiteSpace=wrap;html=1;" vertex="1" parent="1">
          <mxGeometry x="160" y="150" width="120" height="60" as="geometry" />
        </mxCell>
        <mxCell id="_c1fTc9PCPGEMTXQCOkE-6" value="" style="edgeStyle=orthogonalEdgeStyle;rounded=0;orthogonalLoop=1;jettySize=auto;html=1;" edge="1" parent="1" source="_c1fTc9PCPGEMTXQCOkE-3" target="_c1fTc9PCPGEMTXQCOkE-5">
          <mxGeometry relative="1" as="geometry" />
        </mxCell>
        <mxCell id="_c1fTc9PCPGEMTXQCOkE-3" value="老 live 房间页面" style="rounded=0;whiteSpace=wrap;html=1;" vertex="1" parent="1">
          <mxGeometry x="360" y="150" width="120" height="60" as="geometry" />
        </mxCell>
        <mxCell id="_c1fTc9PCPGEMTXQCOkE-9" style="edgeStyle=orthogonalEdgeStyle;rounded=0;orthogonalLoop=1;jettySize=auto;html=1;exitX=0.5;exitY=1;exitDx=0;exitDy=0;entryX=0.5;entryY=0;entryDx=0;entryDy=0;" edge="1" parent="1" source="_c1fTc9PCPGEMTXQCOkE-5" target="_c1fTc9PCPGEMTXQCOkE-51">
          <mxGeometry relative="1" as="geometry">
            <mxPoint x="655" y="310" as="targetPoint" />
          </mxGeometry>
        </mxCell>
        <mxCell id="_c1fTc9PCPGEMTXQCOkE-10" value="参与测试的分桶" style="edgeLabel;html=1;align=center;verticalAlign=middle;resizable=0;points=[];" vertex="1" connectable="0" parent="_c1fTc9PCPGEMTXQCOkE-9">
          <mxGeometry x="-0.2044" y="1" relative="1" as="geometry">
            <mxPoint as="offset" />
          </mxGeometry>
        </mxCell>
        <mxCell id="_c1fTc9PCPGEMTXQCOkE-5" value="abtest判断" style="rhombus;whiteSpace=wrap;html=1;rounded=0;" vertex="1" parent="1">
          <mxGeometry x="580" y="140" width="150" height="80" as="geometry" />
        </mxCell>
        <mxCell id="_c1fTc9PCPGEMTXQCOkE-7" style="edgeStyle=orthogonalEdgeStyle;rounded=0;orthogonalLoop=1;jettySize=auto;html=1;entryX=0.433;entryY=-0.017;entryDx=0;entryDy=0;entryPerimeter=0;" edge="1" parent="1" source="_c1fTc9PCPGEMTXQCOkE-5" target="_c1fTc9PCPGEMTXQCOkE-3">
          <mxGeometry relative="1" as="geometry">
            <Array as="points">
              <mxPoint x="780" y="180" />
              <mxPoint x="780" y="70" />
              <mxPoint x="412" y="70" />
            </Array>
          </mxGeometry>
        </mxCell>
        <mxCell id="_c1fTc9PCPGEMTXQCOkE-8" value="不参与测试的分桶" style="edgeLabel;html=1;align=center;verticalAlign=middle;resizable=0;points=[];" vertex="1" connectable="0" parent="_c1fTc9PCPGEMTXQCOkE-7">
          <mxGeometry x="-0.2197" y="1" relative="1" as="geometry">
            <mxPoint x="-103" as="offset" />
          </mxGeometry>
        </mxCell>
        <mxCell id="_c1fTc9PCPGEMTXQCOkE-13" value="" style="edgeStyle=orthogonalEdgeStyle;rounded=0;orthogonalLoop=1;jettySize=auto;html=1;" edge="1" parent="1" source="_c1fTc9PCPGEMTXQCOkE-11" target="_c1fTc9PCPGEMTXQCOkE-12">
          <mxGeometry relative="1" as="geometry" />
        </mxCell>
        <mxCell id="_c1fTc9PCPGEMTXQCOkE-11" value="通过roomid参数查询房间信息" style="rounded=0;whiteSpace=wrap;html=1;" vertex="1" parent="1">
          <mxGeometry x="595" y="420" width="120" height="60" as="geometry" />
        </mxCell>
        <mxCell id="_c1fTc9PCPGEMTXQCOkE-15" value="" style="edgeStyle=orthogonalEdgeStyle;rounded=0;orthogonalLoop=1;jettySize=auto;html=1;" edge="1" parent="1" source="_c1fTc9PCPGEMTXQCOkE-12" target="_c1fTc9PCPGEMTXQCOkE-14">
          <mxGeometry relative="1" as="geometry" />
        </mxCell>
        <mxCell id="_c1fTc9PCPGEMTXQCOkE-16" value="没有" style="edgeLabel;html=1;align=center;verticalAlign=middle;resizable=0;points=[];" vertex="1" connectable="0" parent="_c1fTc9PCPGEMTXQCOkE-15">
          <mxGeometry x="-0.2222" relative="1" as="geometry">
            <mxPoint as="offset" />
          </mxGeometry>
        </mxCell>
        <mxCell id="_c1fTc9PCPGEMTXQCOkE-19" value="" style="edgeStyle=orthogonalEdgeStyle;rounded=0;orthogonalLoop=1;jettySize=auto;html=1;entryX=0;entryY=0.5;entryDx=0;entryDy=0;" edge="1" parent="1" source="_c1fTc9PCPGEMTXQCOkE-12" target="_c1fTc9PCPGEMTXQCOkE-20">
          <mxGeometry relative="1" as="geometry" />
        </mxCell>
        <mxCell id="_c1fTc9PCPGEMTXQCOkE-12" value="是否有绑定的专题页" style="rhombus;whiteSpace=wrap;html=1;rounded=0;" vertex="1" parent="1">
          <mxGeometry x="557.5" y="530" width="195" height="80" as="geometry" />
        </mxCell>
        <mxCell id="_c1fTc9PCPGEMTXQCOkE-14" value="新版房间页面&lt;div&gt;路径重定向到 /beta/roomid&lt;/div&gt;" style="whiteSpace=wrap;html=1;rounded=0;" vertex="1" parent="1">
          <mxGeometry x="595" y="680" width="120" height="60" as="geometry" />
        </mxCell>
        <mxCell id="_c1fTc9PCPGEMTXQCOkE-17" value="新版专题页页面&lt;div&gt;路径重定向到 /beta/roomid&lt;/div&gt;" style="whiteSpace=wrap;html=1;rounded=0;" vertex="1" parent="1">
          <mxGeometry x="1130" y="540" width="120" height="60" as="geometry" />
        </mxCell>
        <mxCell id="_c1fTc9PCPGEMTXQCOkE-22" style="edgeStyle=orthogonalEdgeStyle;rounded=0;orthogonalLoop=1;jettySize=auto;html=1;entryX=0;entryY=0.5;entryDx=0;entryDy=0;" edge="1" parent="1" source="_c1fTc9PCPGEMTXQCOkE-20" target="_c1fTc9PCPGEMTXQCOkE-17">
          <mxGeometry relative="1" as="geometry" />
        </mxCell>
        <mxCell id="_c1fTc9PCPGEMTXQCOkE-23" value="没有，直接取对应的专题页" style="edgeLabel;html=1;align=center;verticalAlign=middle;resizable=0;points=[];" vertex="1" connectable="0" parent="_c1fTc9PCPGEMTXQCOkE-22">
          <mxGeometry x="-0.08" y="-1" relative="1" as="geometry">
            <mxPoint as="offset" />
          </mxGeometry>
        </mxCell>
        <mxCell id="_c1fTc9PCPGEMTXQCOkE-24" style="edgeStyle=orthogonalEdgeStyle;rounded=0;orthogonalLoop=1;jettySize=auto;html=1;entryX=0.5;entryY=0;entryDx=0;entryDy=0;" edge="1" parent="1" source="_c1fTc9PCPGEMTXQCOkE-20" target="_c1fTc9PCPGEMTXQCOkE-17">
          <mxGeometry relative="1" as="geometry">
            <Array as="points">
              <mxPoint x="875" y="500" />
              <mxPoint x="1190" y="500" />
            </Array>
          </mxGeometry>
        </mxCell>
        <mxCell id="_c1fTc9PCPGEMTXQCOkE-25" value="有，若存在跳转绑定则最优先，若无跳转绑定则取最新的" style="edgeLabel;html=1;align=center;verticalAlign=middle;resizable=0;points=[];" vertex="1" connectable="0" parent="_c1fTc9PCPGEMTXQCOkE-24">
          <mxGeometry x="0.2198" y="-2" relative="1" as="geometry">
            <mxPoint x="-52" y="-2" as="offset" />
          </mxGeometry>
        </mxCell>
        <mxCell id="_c1fTc9PCPGEMTXQCOkE-20" value="是否有绑定多个专题页" style="rhombus;whiteSpace=wrap;html=1;" vertex="1" parent="1">
          <mxGeometry x="800" y="530" width="150" height="80" as="geometry" />
        </mxCell>
        <mxCell id="_c1fTc9PCPGEMTXQCOkE-28" value="" style="edgeStyle=orthogonalEdgeStyle;rounded=0;orthogonalLoop=1;jettySize=auto;html=1;" edge="1" parent="1" source="_c1fTc9PCPGEMTXQCOkE-29" target="_c1fTc9PCPGEMTXQCOkE-31">
          <mxGeometry relative="1" as="geometry" />
        </mxCell>
        <mxCell id="_c1fTc9PCPGEMTXQCOkE-29" value="topic入口" style="rounded=0;whiteSpace=wrap;html=1;" vertex="1" parent="1">
          <mxGeometry x="160" y="850" width="120" height="60" as="geometry" />
        </mxCell>
        <mxCell id="_c1fTc9PCPGEMTXQCOkE-30" value="" style="edgeStyle=orthogonalEdgeStyle;rounded=0;orthogonalLoop=1;jettySize=auto;html=1;" edge="1" parent="1" source="_c1fTc9PCPGEMTXQCOkE-31" target="_c1fTc9PCPGEMTXQCOkE-34">
          <mxGeometry relative="1" as="geometry" />
        </mxCell>
        <mxCell id="_c1fTc9PCPGEMTXQCOkE-31" value="老专题页页面" style="rounded=0;whiteSpace=wrap;html=1;" vertex="1" parent="1">
          <mxGeometry x="360" y="850" width="120" height="60" as="geometry" />
        </mxCell>
        <mxCell id="_c1fTc9PCPGEMTXQCOkE-32" style="edgeStyle=orthogonalEdgeStyle;rounded=0;orthogonalLoop=1;jettySize=auto;html=1;exitX=0.5;exitY=1;exitDx=0;exitDy=0;entryX=0.5;entryY=0;entryDx=0;entryDy=0;" edge="1" parent="1" source="_c1fTc9PCPGEMTXQCOkE-34" target="_c1fTc9PCPGEMTXQCOkE-50">
          <mxGeometry relative="1" as="geometry">
            <mxPoint x="655" y="1000" as="targetPoint" />
          </mxGeometry>
        </mxCell>
        <mxCell id="_c1fTc9PCPGEMTXQCOkE-33" value="参与测试的分桶" style="edgeLabel;html=1;align=center;verticalAlign=middle;resizable=0;points=[];" vertex="1" connectable="0" parent="_c1fTc9PCPGEMTXQCOkE-32">
          <mxGeometry x="-0.2044" y="1" relative="1" as="geometry">
            <mxPoint as="offset" />
          </mxGeometry>
        </mxCell>
        <mxCell id="_c1fTc9PCPGEMTXQCOkE-34" value="abtest判断" style="rhombus;whiteSpace=wrap;html=1;rounded=0;" vertex="1" parent="1">
          <mxGeometry x="580" y="840" width="150" height="80" as="geometry" />
        </mxCell>
        <mxCell id="_c1fTc9PCPGEMTXQCOkE-35" style="edgeStyle=orthogonalEdgeStyle;rounded=0;orthogonalLoop=1;jettySize=auto;html=1;entryX=0.433;entryY=-0.017;entryDx=0;entryDy=0;entryPerimeter=0;" edge="1" parent="1" source="_c1fTc9PCPGEMTXQCOkE-34" target="_c1fTc9PCPGEMTXQCOkE-31">
          <mxGeometry relative="1" as="geometry">
            <Array as="points">
              <mxPoint x="780" y="880" />
              <mxPoint x="780" y="770" />
              <mxPoint x="412" y="770" />
            </Array>
          </mxGeometry>
        </mxCell>
        <mxCell id="_c1fTc9PCPGEMTXQCOkE-36" value="不参与测试的分桶" style="edgeLabel;html=1;align=center;verticalAlign=middle;resizable=0;points=[];" vertex="1" connectable="0" parent="_c1fTc9PCPGEMTXQCOkE-35">
          <mxGeometry x="-0.2197" y="1" relative="1" as="geometry">
            <mxPoint x="-103" as="offset" />
          </mxGeometry>
        </mxCell>
        <mxCell id="_c1fTc9PCPGEMTXQCOkE-44" value="新版专题页页面&lt;div&gt;路径重定向到 /beta/roomid&lt;/div&gt;" style="whiteSpace=wrap;html=1;rounded=0;" vertex="1" parent="1">
          <mxGeometry x="847.5" y="1230" width="120" height="60" as="geometry" />
        </mxCell>
        <mxCell id="_c1fTc9PCPGEMTXQCOkE-45" style="edgeStyle=orthogonalEdgeStyle;rounded=0;orthogonalLoop=1;jettySize=auto;html=1;entryX=0;entryY=0.5;entryDx=0;entryDy=0;exitX=0.5;exitY=1;exitDx=0;exitDy=0;" edge="1" parent="1" source="_c1fTc9PCPGEMTXQCOkE-59" target="_c1fTc9PCPGEMTXQCOkE-44">
          <mxGeometry relative="1" as="geometry">
            <mxPoint x="950" y="1310" as="sourcePoint" />
          </mxGeometry>
        </mxCell>
        <mxCell id="_c1fTc9PCPGEMTXQCOkE-55" style="edgeStyle=orthogonalEdgeStyle;rounded=0;orthogonalLoop=1;jettySize=auto;html=1;exitX=0.5;exitY=1;exitDx=0;exitDy=0;entryX=0.5;entryY=0;entryDx=0;entryDy=0;" edge="1" parent="1" source="_c1fTc9PCPGEMTXQCOkE-50" target="_c1fTc9PCPGEMTXQCOkE-54">
          <mxGeometry relative="1" as="geometry" />
        </mxCell>
        <mxCell id="_c1fTc9PCPGEMTXQCOkE-58" value="是" style="edgeLabel;html=1;align=center;verticalAlign=middle;resizable=0;points=[];" vertex="1" connectable="0" parent="_c1fTc9PCPGEMTXQCOkE-55">
          <mxGeometry x="-0.45" y="-1" relative="1" as="geometry">
            <mxPoint as="offset" />
          </mxGeometry>
        </mxCell>
        <mxCell id="_c1fTc9PCPGEMTXQCOkE-57" style="edgeStyle=orthogonalEdgeStyle;rounded=0;orthogonalLoop=1;jettySize=auto;html=1;entryX=0;entryY=0.5;entryDx=0;entryDy=0;" edge="1" parent="1" source="_c1fTc9PCPGEMTXQCOkE-50" target="_c1fTc9PCPGEMTXQCOkE-56">
          <mxGeometry relative="1" as="geometry" />
        </mxCell>
        <mxCell id="_c1fTc9PCPGEMTXQCOkE-50" value="是否是有房间的专题页" style="rhombus;whiteSpace=wrap;html=1;" vertex="1" parent="1">
          <mxGeometry x="570" y="970" width="170" height="80" as="geometry" />
        </mxCell>
        <mxCell id="_c1fTc9PCPGEMTXQCOkE-53" style="edgeStyle=orthogonalEdgeStyle;rounded=0;orthogonalLoop=1;jettySize=auto;html=1;" edge="1" parent="1" source="_c1fTc9PCPGEMTXQCOkE-51" target="_c1fTc9PCPGEMTXQCOkE-11">
          <mxGeometry relative="1" as="geometry" />
        </mxCell>
        <mxCell id="_c1fTc9PCPGEMTXQCOkE-51" value="客户端跳转至&lt;span style=&quot;color: rgba(0, 0, 0, 0); font-family: monospace; font-size: 0px; text-align: start; text-wrap-mode: nowrap;&quot;&gt;%3CmxGraphModel%3E%3Croot%3E%3CmxCell%20id%3D%220%22%2F%3E%3CmxCell%20id%3D%221%22%20parent%3D%220%22%2F%3E%3CmxCell%20id%3D%222%22%20value%3D%22%22%20style%3D%22edgeStyle%3DorthogonalEdgeStyle%3Brounded%3D0%3BorthogonalLoop%3D1%3BjettySize%3Dauto%3Bhtml%3D1%3B%22%20edge%3D%221%22%20source%3D%223%22%20target%3D%225%22%20parent%3D%221%22%3E%3CmxGeometry%20relative%3D%221%22%20as%3D%22geometry%22%2F%3E%3C%2FmxCell%3E%3CmxCell%20id%3D%223%22%20value%3D%22%E6%88%BF%E9%97%B4%E5%8F%B7%20%E5%85%A5%E5%8F%A3%22%20style%3D%22rounded%3D0%3BwhiteSpace%3Dwrap%3Bhtml%3D1%3B%22%20vertex%3D%221%22%20parent%3D%221%22%3E%3CmxGeometry%20x%3D%22160%22%20y%3D%22150%22%20width%3D%22120%22%20height%3D%2260%22%20as%3D%22geometry%22%2F%3E%3C%2FmxCell%3E%3CmxCell%20id%3D%224%22%20value%3D%22%22%20style%3D%22edgeStyle%3DorthogonalEdgeStyle%3Brounded%3D0%3BorthogonalLoop%3D1%3BjettySize%3Dauto%3Bhtml%3D1%3B%22%20edge%3D%221%22%20source%3D%225%22%20target%3D%228%22%20parent%3D%221%22%3E%3CmxGeometry%20relative%3D%221%22%20as%3D%22geometry%22%2F%3E%3C%2FmxCell%3E%3CmxCell%20id%3D%225%22%20value%3D%22%E8%80%81%20live%20%E6%88%BF%E9%97%B4%E9%A1%B5%E9%9D%A2%22%20style%3D%22rounded%3D0%3BwhiteSpace%3Dwrap%3Bhtml%3D1%3B%22%20vertex%3D%221%22%20parent%3D%221%22%3E%3CmxGeometry%20x%3D%22360%22%20y%3D%22150%22%20width%3D%22120%22%20height%3D%2260%22%20as%3D%22geometry%22%2F%3E%3C%2FmxCell%3E%3CmxCell%20id%3D%226%22%20style%3D%22edgeStyle%3DorthogonalEdgeStyle%3Brounded%3D0%3BorthogonalLoop%3D1%3BjettySize%3Dauto%3Bhtml%3D1%3BexitX%3D0.5%3BexitY%3D1%3BexitDx%3D0%3BexitDy%3D0%3B%22%20edge%3D%221%22%20source%3D%228%22%20parent%3D%221%22%3E%3CmxGeometry%20relative%3D%221%22%20as%3D%22geometry%22%3E%3CmxPoint%20x%3D%22655%22%20y%3D%22310%22%20as%3D%22targetPoint%22%2F%3E%3C%2FmxGeometry%3E%3C%2FmxCell%3E%3CmxCell%20id%3D%227%22%20value%3D%22%E5%8F%82%E4%B8%8E%E6%B5%8B%E8%AF%95%E7%9A%84%E5%88%86%E6%A1%B6%22%20style%3D%22edgeLabel%3Bhtml%3D1%3Balign%3Dcenter%3BverticalAlign%3Dmiddle%3Bresizable%3D0%3Bpoints%3D%5B%5D%3B%22%20vertex%3D%221%22%20connectable%3D%220%22%20parent%3D%226%22%3E%3CmxGeometry%20x%3D%22-0.2044%22%20y%3D%221%22%20relative%3D%221%22%20as%3D%22geometry%22%3E%3CmxPoint%20as%3D%22offset%22%2F%3E%3C%2FmxGeometry%3E%3C%2FmxCell%3E%3CmxCell%20id%3D%228%22%20value%3D%22abtest%E5%88%A4%E6%96%AD%22%20style%3D%22rhombus%3BwhiteSpace%3Dwrap%3Bhtml%3D1%3Brounded%3D0%3B%22%20vertex%3D%221%22%20parent%3D%221%22%3E%3CmxGeometry%20x%3D%22580%22%20y%3D%22140%22%20width%3D%22150%22%20height%3D%2280%22%20as%3D%22geometry%22%2F%3E%3C%2FmxCell%3E%3CmxCell%20id%3D%229%22%20style%3D%22edgeStyle%3DorthogonalEdgeStyle%3Brounded%3D0%3BorthogonalLoop%3D1%3BjettySize%3Dauto%3Bhtml%3D1%3BentryX%3D0.433%3BentryY%3D-0.017%3BentryDx%3D0%3BentryDy%3D0%3BentryPerimeter%3D0%3B%22%20edge%3D%221%22%20source%3D%228%22%20target%3D%225%22%20parent%3D%221%22%3E%3CmxGeometry%20relative%3D%221%22%20as%3D%22geometry%22%3E%3CArray%20as%3D%22points%22%3E%3CmxPoint%20x%3D%22780%22%20y%3D%22180%22%2F%3E%3CmxPoint%20x%3D%22780%22%20y%3D%2270%22%2F%3E%3CmxPoint%20x%3D%22412%22%20y%3D%2270%22%2F%3E%3C%2FArray%3E%3C%2FmxGeometry%3E%3C%2FmxCell%3E%3CmxCell%20id%3D%2210%22%20value%3D%22%E4%B8%8D%E5%8F%82%E4%B8%8E%E6%B5%8B%E8%AF%95%E7%9A%84%E5%88%86%E6%A1%B6%22%20style%3D%22edgeLabel%3Bhtml%3D1%3Balign%3Dcenter%3BverticalAlign%3Dmiddle%3Bresizable%3D0%3Bpoints%3D%5B%5D%3B%22%20vertex%3D%221%22%20connectable%3D%220%22%20parent%3D%229%22%3E%3CmxGeometry%20x%3D%22-0.2197%22%20y%3D%221%22%20relative%3D%221%22%20as%3D%22geometry%22%3E%3CmxPoint%20x%3D%22-103%22%20as%3D%22offset%22%2F%3E%3C%2FmxGeometry%3E%3C%2FmxCell%3E%3CmxCell%20id%3D%2211%22%20value%3D%22%22%20style%3D%22edgeStyle%3DorthogonalEdgeStyle%3Brounded%3D0%3BorthogonalLoop%3D1%3BjettySize%3Dauto%3Bhtml%3D1%3B%22%20edge%3D%221%22%20source%3D%2212%22%20target%3D%2216%22%20parent%3D%221%22%3E%3CmxGeometry%20relative%3D%221%22%20as%3D%22geometry%22%2F%3E%3C%2FmxCell%3E%3CmxCell%20id%3D%2212%22%20value%3D%22%E9%80%9A%E8%BF%87roomid%E6%9F%A5%E8%AF%A2%E6%88%BF%E9%97%B4%E4%BF%A1%E6%81%AF%22%20style%3D%22rounded%3D0%3BwhiteSpace%3Dwrap%3Bhtml%3D1%3B%22%20vertex%3D%221%22%20parent%3D%221%22%3E%3CmxGeometry%20x%3D%22595%22%20y%3D%22310%22%20width%3D%22120%22%20height%3D%2260%22%20as%3D%22geometry%22%2F%3E%3C%2FmxCell%3E%3CmxCell%20id%3D%2213%22%20value%3D%22%22%20style%3D%22edgeStyle%3DorthogonalEdgeStyle%3Brounded%3D0%3BorthogonalLoop%3D1%3BjettySize%3Dauto%3Bhtml%3D1%3B%22%20edge%3D%221%22%20source%3D%2216%22%20target%3D%2217%22%20parent%3D%221%22%3E%3CmxGeometry%20relative%3D%221%22%20as%3D%22geometry%22%2F%3E%3C%2FmxCell%3E%3CmxCell%20id%3D%2214%22%20value%3D%22%E6%B2%A1%E6%9C%89%22%20style%3D%22edgeLabel%3Bhtml%3D1%3Balign%3Dcenter%3BverticalAlign%3Dmiddle%3Bresizable%3D0%3Bpoints%3D%5B%5D%3B%22%20vertex%3D%221%22%20connectable%3D%220%22%20parent%3D%2213%22%3E%3CmxGeometry%20x%3D%22-0.2222%22%20relative%3D%221%22%20as%3D%22geometry%22%3E%3CmxPoint%20as%3D%22offset%22%2F%3E%3C%2FmxGeometry%3E%3C%2FmxCell%3E%3CmxCell%20id%3D%2215%22%20value%3D%22%22%20style%3D%22edgeStyle%3DorthogonalEdgeStyle%3Brounded%3D0%3BorthogonalLoop%3D1%3BjettySize%3Dauto%3Bhtml%3D1%3BentryX%3D0%3BentryY%3D0.5%3BentryDx%3D0%3BentryDy%3D0%3B%22%20edge%3D%221%22%20source%3D%2216%22%20target%3D%2223%22%20parent%3D%221%22%3E%3CmxGeometry%20relative%3D%221%22%20as%3D%22geometry%22%2F%3E%3C%2FmxCell%3E%3CmxCell%20id%3D%2216%22%20value%3D%22%E6%98%AF%E5%90%A6%E6%9C%89%E7%BB%91%E5%AE%9A%E7%9A%84%E4%B8%93%E9%A2%98%E9%A1%B5%22%20style%3D%22rhombus%3BwhiteSpace%3Dwrap%3Bhtml%3D1%3Brounded%3D0%3B%22%20vertex%3D%221%22%20parent%3D%221%22%3E%3CmxGeometry%20x%3D%22557.5%22%20y%3D%22410%22%20width%3D%22195%22%20height%3D%2280%22%20as%3D%22geometry%22%2F%3E%3C%2FmxCell%3E%3CmxCell%20id%3D%2217%22%20value%3D%22%E6%96%B0%E7%89%88%E6%88%BF%E9%97%B4%E9%A1%B5%E9%9D%A2%26lt%3Bdiv%26gt%3B%E8%B7%AF%E5%BE%84%E9%87%8D%E5%AE%9A%E5%90%91%E5%88%B0%20%2Fbeta%2Froomid%26lt%3B%2Fdiv%26gt%3B%22%20style%3D%22whiteSpace%3Dwrap%3Bhtml%3D1%3Brounded%3D0%3B%22%20vertex%3D%221%22%20parent%3D%221%22%3E%3CmxGeometry%20x%3D%22595%22%20y%3D%22580%22%20width%3D%22120%22%20height%3D%2260%22%20as%3D%22geometry%22%2F%3E%3C%2FmxCell%3E%3CmxCell%20id%3D%2218%22%20value%3D%22%E6%96%B0%E7%89%88%E4%B8%93%E9%A2%98%E9%A1%B5%E9%A1%B5%E9%9D%A2%26lt%3Bdiv%26gt%3B%E8%B7%AF%E5%BE%84%E9%87%8D%E5%AE%9A%E5%90%91%E5%88%B0%20%2Fbeta%2Froomid%26lt%3B%2Fdiv%26gt%3B%22%20style%3D%22whiteSpace%3Dwrap%3Bhtml%3D1%3Brounded%3D0%3B%22%20vertex%3D%221%22%20parent%3D%221%22%3E%3CmxGeometry%20x%3D%221130%22%20y%3D%22420%22%20width%3D%22120%22%20height%3D%2260%22%20as%3D%22geometry%22%2F%3E%3C%2FmxCell%3E%3CmxCell%20id%3D%2219%22%20style%3D%22edgeStyle%3DorthogonalEdgeStyle%3Brounded%3D0%3BorthogonalLoop%3D1%3BjettySize%3Dauto%3Bhtml%3D1%3BentryX%3D0%3BentryY%3D0.5%3BentryDx%3D0%3BentryDy%3D0%3B%22%20edge%3D%221%22%20source%3D%2223%22%20target%3D%2218%22%20parent%3D%221%22%3E%3CmxGeometry%20relative%3D%221%22%20as%3D%22geometry%22%2F%3E%3C%2FmxCell%3E%3CmxCell%20id%3D%2220%22%20value%3D%22%E6%B2%A1%E6%9C%89%EF%BC%8C%E7%9B%B4%E6%8E%A5%E5%8F%96%E5%AF%B9%E5%BA%94%E7%9A%84%E4%B8%93%E9%A2%98%E9%A1%B5%22%20style%3D%22edgeLabel%3Bhtml%3D1%3Balign%3Dcenter%3BverticalAlign%3Dmiddle%3Bresizable%3D0%3Bpoints%3D%5B%5D%3B%22%20vertex%3D%221%22%20connectable%3D%220%22%20parent%3D%2219%22%3E%3CmxGeometry%20x%3D%22-0.08%22%20y%3D%22-1%22%20relative%3D%221%22%20as%3D%22geometry%22%3E%3CmxPoint%20as%3D%22offset%22%2F%3E%3C%2FmxGeometry%3E%3C%2FmxCell%3E%3CmxCell%20id%3D%2221%22%20style%3D%22edgeStyle%3DorthogonalEdgeStyle%3Brounded%3D0%3BorthogonalLoop%3D1%3BjettySize%3Dauto%3Bhtml%3D1%3BentryX%3D0.5%3BentryY%3D0%3BentryDx%3D0%3BentryDy%3D0%3B%22%20edge%3D%221%22%20source%3D%2223%22%20target%3D%2218%22%20parent%3D%221%22%3E%3CmxGeometry%20relative%3D%221%22%20as%3D%22geometry%22%3E%3CArray%20as%3D%22points%22%3E%3CmxPoint%20x%3D%22875%22%20y%3D%22380%22%2F%3E%3CmxPoint%20x%3D%221190%22%20y%3D%22380%22%2F%3E%3C%2FArray%3E%3C%2FmxGeometry%3E%3C%2FmxCell%3E%3CmxCell%20id%3D%2222%22%20value%3D%22%E6%9C%89%EF%BC%8C%E8%8B%A5%E5%AD%98%E5%9C%A8%E8%B7%B3%E8%BD%AC%E7%BB%91%E5%AE%9A%E5%88%99%E6%9C%80%E4%BC%98%E5%85%88%EF%BC%8C%E8%8B%A5%E6%97%A0%E8%B7%B3%E8%BD%AC%E7%BB%91%E5%AE%9A%E5%88%99%E5%8F%96%E6%9C%80%E6%96%B0%E7%9A%84%22%20style%3D%22edgeLabel%3Bhtml%3D1%3Balign%3Dcenter%3BverticalAlign%3Dmiddle%3Bresizable%3D0%3Bpoints%3D%5B%5D%3B%22%20vertex%3D%221%22%20connectable%3D%220%22%20parent%3D%2221%22%3E%3CmxGeometry%20x%3D%220.2198%22%20y%3D%22-2%22%20relative%3D%221%22%20as%3D%22geometry%22%3E%3CmxPoint%20x%3D%22-52%22%20y%3D%22-2%22%20as%3D%22offset%22%2F%3E%3C%2FmxGeometry%3E%3C%2FmxCell%3E%3CmxCell%20id%3D%2223%22%20value%3D%22%E6%98%AF%E5%90%A6%E6%9C%89%E7%BB%91%E5%AE%9A%E5%A4%9A%E4%B8%AA%E4%B8%93%E9%A2%98%E9%A1%B5%22%20style%3D%22rhombus%3BwhiteSpace%3Dwrap%3Bhtml%3D1%3B%22%20vertex%3D%221%22%20parent%3D%221%22%3E%3CmxGeometry%20x%3D%22800%22%20y%3D%22410%22%20width%3D%22150%22%20height%3D%2280%22%20as%3D%22geometry%22%2F%3E%3C%2FmxCell%3E%3C%2Froot%3E%3C%2FmxGraphModel%3E&lt;/span&gt;&lt;span style=&quot;color: rgba(0, 0, 0, 0); font-family: monospace; font-size: 0px; text-align: start; text-wrap-mode: nowrap;&quot;&gt;%3CmxGraphModel%3E%3Croot%3E%3CmxCell%20id%3D%220%22%2F%3E%3CmxCell%20id%3D%221%22%20parent%3D%220%22%2F%3E%3CmxCell%20id%3D%222%22%20value%3D%22%22%20style%3D%22edgeStyle%3DorthogonalEdgeStyle%3Brounded%3D0%3BorthogonalLoop%3D1%3BjettySize%3Dauto%3Bhtml%3D1%3B%22%20edge%3D%221%22%20source%3D%223%22%20target%3D%225%22%20parent%3D%221%22%3E%3CmxGeometry%20relative%3D%221%22%20as%3D%22geometry%22%2F%3E%3C%2FmxCell%3E%3CmxCell%20id%3D%223%22%20value%3D%22%E6%88%BF%E9%97%B4%E5%8F%B7%20%E5%85%A5%E5%8F%A3%22%20style%3D%22rounded%3D0%3BwhiteSpace%3Dwrap%3Bhtml%3D1%3B%22%20vertex%3D%221%22%20parent%3D%221%22%3E%3CmxGeometry%20x%3D%22160%22%20y%3D%22150%22%20width%3D%22120%22%20height%3D%2260%22%20as%3D%22geometry%22%2F%3E%3C%2FmxCell%3E%3CmxCell%20id%3D%224%22%20value%3D%22%22%20style%3D%22edgeStyle%3DorthogonalEdgeStyle%3Brounded%3D0%3BorthogonalLoop%3D1%3BjettySize%3Dauto%3Bhtml%3D1%3B%22%20edge%3D%221%22%20source%3D%225%22%20target%3D%228%22%20parent%3D%221%22%3E%3CmxGeometry%20relative%3D%221%22%20as%3D%22geometry%22%2F%3E%3C%2FmxCell%3E%3CmxCell%20id%3D%225%22%20value%3D%22%E8%80%81%20live%20%E6%88%BF%E9%97%B4%E9%A1%B5%E9%9D%A2%22%20style%3D%22rounded%3D0%3BwhiteSpace%3Dwrap%3Bhtml%3D1%3B%22%20vertex%3D%221%22%20parent%3D%221%22%3E%3CmxGeometry%20x%3D%22360%22%20y%3D%22150%22%20width%3D%22120%22%20height%3D%2260%22%20as%3D%22geometry%22%2F%3E%3C%2FmxCell%3E%3CmxCell%20id%3D%226%22%20style%3D%22edgeStyle%3DorthogonalEdgeStyle%3Brounded%3D0%3BorthogonalLoop%3D1%3BjettySize%3Dauto%3Bhtml%3D1%3BexitX%3D0.5%3BexitY%3D1%3BexitDx%3D0%3BexitDy%3D0%3B%22%20edge%3D%221%22%20source%3D%228%22%20parent%3D%221%22%3E%3CmxGeometry%20relative%3D%221%22%20as%3D%22geometry%22%3E%3CmxPoint%20x%3D%22655%22%20y%3D%22310%22%20as%3D%22targetPoint%22%2F%3E%3C%2FmxGeometry%3E%3C%2FmxCell%3E%3CmxCell%20id%3D%227%22%20value%3D%22%E5%8F%82%E4%B8%8E%E6%B5%8B%E8%AF%95%E7%9A%84%E5%88%86%E6%A1%B6%22%20style%3D%22edgeLabel%3Bhtml%3D1%3Balign%3Dcenter%3BverticalAlign%3Dmiddle%3Bresizable%3D0%3Bpoints%3D%5B%5D%3B%22%20vertex%3D%221%22%20connectable%3D%220%22%20parent%3D%226%22%3E%3CmxGeometry%20x%3D%22-0.2044%22%20y%3D%221%22%20relative%3D%221%22%20as%3D%22geometry%22%3E%3CmxPoint%20as%3D%22offset%22%2F%3E%3C%2FmxGeometry%3E%3C%2FmxCell%3E%3CmxCell%20id%3D%228%22%20value%3D%22abtest%E5%88%A4%E6%96%AD%22%20style%3D%22rhombus%3BwhiteSpace%3Dwrap%3Bhtml%3D1%3Brounded%3D0%3B%22%20vertex%3D%221%22%20parent%3D%221%22%3E%3CmxGeometry%20x%3D%22580%22%20y%3D%22140%22%20width%3D%22150%22%20height%3D%2280%22%20as%3D%22geometry%22%2F%3E%3C%2FmxCell%3E%3CmxCell%20id%3D%229%22%20style%3D%22edgeStyle%3DorthogonalEdgeStyle%3Brounded%3D0%3BorthogonalLoop%3D1%3BjettySize%3Dauto%3Bhtml%3D1%3BentryX%3D0.433%3BentryY%3D-0.017%3BentryDx%3D0%3BentryDy%3D0%3BentryPerimeter%3D0%3B%22%20edge%3D%221%22%20source%3D%228%22%20target%3D%225%22%20parent%3D%221%22%3E%3CmxGeometry%20relative%3D%221%22%20as%3D%22geometry%22%3E%3CArray%20as%3D%22points%22%3E%3CmxPoint%20x%3D%22780%22%20y%3D%22180%22%2F%3E%3CmxPoint%20x%3D%22780%22%20y%3D%2270%22%2F%3E%3CmxPoint%20x%3D%22412%22%20y%3D%2270%22%2F%3E%3C%2FArray%3E%3C%2FmxGeometry%3E%3C%2FmxCell%3E%3CmxCell%20id%3D%2210%22%20value%3D%22%E4%B8%8D%E5%8F%82%E4%B8%8E%E6%B5%8B%E8%AF%95%E7%9A%84%E5%88%86%E6%A1%B6%22%20style%3D%22edgeLabel%3Bhtml%3D1%3Balign%3Dcenter%3BverticalAlign%3Dmiddle%3Bresizable%3D0%3Bpoints%3D%5B%5D%3B%22%20vertex%3D%221%22%20connectable%3D%220%22%20parent%3D%229%22%3E%3CmxGeometry%20x%3D%22-0.2197%22%20y%3D%221%22%20relative%3D%221%22%20as%3D%22geometry%22%3E%3CmxPoint%20x%3D%22-103%22%20as%3D%22offset%22%2F%3E%3C%2FmxGeometry%3E%3C%2FmxCell%3E%3CmxCell%20id%3D%2211%22%20value%3D%22%22%20style%3D%22edgeStyle%3DorthogonalEdgeStyle%3Brounded%3D0%3BorthogonalLoop%3D1%3BjettySize%3Dauto%3Bhtml%3D1%3B%22%20edge%3D%221%22%20source%3D%2212%22%20target%3D%2216%22%20parent%3D%221%22%3E%3CmxGeometry%20relative%3D%221%22%20as%3D%22geometry%22%2F%3E%3C%2FmxCell%3E%3CmxCell%20id%3D%2212%22%20value%3D%22%E9%80%9A%E8%BF%87roomid%E6%9F%A5%E8%AF%A2%E6%88%BF%E9%97%B4%E4%BF%A1%E6%81%AF%22%20style%3D%22rounded%3D0%3BwhiteSpace%3Dwrap%3Bhtml%3D1%3B%22%20vertex%3D%221%22%20parent%3D%221%22%3E%3CmxGeometry%20x%3D%22595%22%20y%3D%22310%22%20width%3D%22120%22%20height%3D%2260%22%20as%3D%22geometry%22%2F%3E%3C%2FmxCell%3E%3CmxCell%20id%3D%2213%22%20value%3D%22%22%20style%3D%22edgeStyle%3DorthogonalEdgeStyle%3Brounded%3D0%3BorthogonalLoop%3D1%3BjettySize%3Dauto%3Bhtml%3D1%3B%22%20edge%3D%221%22%20source%3D%2216%22%20target%3D%2217%22%20parent%3D%221%22%3E%3CmxGeometry%20relative%3D%221%22%20as%3D%22geometry%22%2F%3E%3C%2FmxCell%3E%3CmxCell%20id%3D%2214%22%20value%3D%22%E6%B2%A1%E6%9C%89%22%20style%3D%22edgeLabel%3Bhtml%3D1%3Balign%3Dcenter%3BverticalAlign%3Dmiddle%3Bresizable%3D0%3Bpoints%3D%5B%5D%3B%22%20vertex%3D%221%22%20connectable%3D%220%22%20parent%3D%2213%22%3E%3CmxGeometry%20x%3D%22-0.2222%22%20relative%3D%221%22%20as%3D%22geometry%22%3E%3CmxPoint%20as%3D%22offset%22%2F%3E%3C%2FmxGeometry%3E%3C%2FmxCell%3E%3CmxCell%20id%3D%2215%22%20value%3D%22%22%20style%3D%22edgeStyle%3DorthogonalEdgeStyle%3Brounded%3D0%3BorthogonalLoop%3D1%3BjettySize%3Dauto%3Bhtml%3D1%3BentryX%3D0%3BentryY%3D0.5%3BentryDx%3D0%3BentryDy%3D0%3B%22%20edge%3D%221%22%20source%3D%2216%22%20target%3D%2223%22%20parent%3D%221%22%3E%3CmxGeometry%20relative%3D%221%22%20as%3D%22geometry%22%2F%3E%3C%2FmxCell%3E%3CmxCell%20id%3D%2216%22%20value%3D%22%E6%98%AF%E5%90%A6%E6%9C%89%E7%BB%91%E5%AE%9A%E7%9A%84%E4%B8%93%E9%A2%98%E9%A1%B5%22%20style%3D%22rhombus%3BwhiteSpace%3Dwrap%3Bhtml%3D1%3Brounded%3D0%3B%22%20vertex%3D%221%22%20parent%3D%221%22%3E%3CmxGeometry%20x%3D%22557.5%22%20y%3D%22410%22%20width%3D%22195%22%20height%3D%2280%22%20as%3D%22geometry%22%2F%3E%3C%2FmxCell%3E%3CmxCell%20id%3D%2217%22%20value%3D%22%E6%96%B0%E7%89%88%E6%88%BF%E9%97%B4%E9%A1%B5%E9%9D%A2%26lt%3Bdiv%26gt%3B%E8%B7%AF%E5%BE%84%E9%87%8D%E5%AE%9A%E5%90%91%E5%88%B0%20%2Fbeta%2Froomid%26lt%3B%2Fdiv%26gt%3B%22%20style%3D%22whiteSpace%3Dwrap%3Bhtml%3D1%3Brounded%3D0%3B%22%20vertex%3D%221%22%20parent%3D%221%22%3E%3CmxGeometry%20x%3D%22595%22%20y%3D%22580%22%20width%3D%22120%22%20height%3D%2260%22%20as%3D%22geometry%22%2F%3E%3C%2FmxCell%3E%3CmxCell%20id%3D%2218%22%20value%3D%22%E6%96%B0%E7%89%88%E4%B8%93%E9%A2%98%E9%A1%B5%E9%A1%B5%E9%9D%A2%26lt%3Bdiv%26gt%3B%E8%B7%AF%E5%BE%84%E9%87%8D%E5%AE%9A%E5%90%91%E5%88%B0%20%2Fbeta%2Froomid%26lt%3B%2Fdiv%26gt%3B%22%20style%3D%22whiteSpace%3Dwrap%3Bhtml%3D1%3Brounded%3D0%3B%22%20vertex%3D%221%22%20parent%3D%221%22%3E%3CmxGeometry%20x%3D%221130%22%20y%3D%22420%22%20width%3D%22120%22%20height%3D%2260%22%20as%3D%22geometry%22%2F%3E%3C%2FmxCell%3E%3CmxCell%20id%3D%2219%22%20style%3D%22edgeStyle%3DorthogonalEdgeStyle%3Brounded%3D0%3BorthogonalLoop%3D1%3BjettySize%3Dauto%3Bhtml%3D1%3BentryX%3D0%3BentryY%3D0.5%3BentryDx%3D0%3BentryDy%3D0%3B%22%20edge%3D%221%22%20source%3D%2223%22%20target%3D%2218%22%20parent%3D%221%22%3E%3CmxGeometry%20relative%3D%221%22%20as%3D%22geometry%22%2F%3E%3C%2FmxCell%3E%3CmxCell%20id%3D%2220%22%20value%3D%22%E6%B2%A1%E6%9C%89%EF%BC%8C%E7%9B%B4%E6%8E%A5%E5%8F%96%E5%AF%B9%E5%BA%94%E7%9A%84%E4%B8%93%E9%A2%98%E9%A1%B5%22%20style%3D%22edgeLabel%3Bhtml%3D1%3Balign%3Dcenter%3BverticalAlign%3Dmiddle%3Bresizable%3D0%3Bpoints%3D%5B%5D%3B%22%20vertex%3D%221%22%20connectable%3D%220%22%20parent%3D%2219%22%3E%3CmxGeometry%20x%3D%22-0.08%22%20y%3D%22-1%22%20relative%3D%221%22%20as%3D%22geometry%22%3E%3CmxPoint%20as%3D%22offset%22%2F%3E%3C%2FmxGeometry%3E%3C%2FmxCell%3E%3CmxCell%20id%3D%2221%22%20style%3D%22edgeStyle%3DorthogonalEdgeStyle%3Brounded%3D0%3BorthogonalLoop%3D1%3BjettySize%3Dauto%3Bhtml%3D1%3BentryX%3D0.5%3BentryY%3D0%3BentryDx%3D0%3BentryDy%3D0%3B%22%20edge%3D%221%22%20source%3D%2223%22%20target%3D%2218%22%20parent%3D%221%22%3E%3CmxGeometry%20relative%3D%221%22%20as%3D%22geometry%22%3E%3CArray%20as%3D%22points%22%3E%3CmxPoint%20x%3D%22875%22%20y%3D%22380%22%2F%3E%3CmxPoint%20x%3D%221190%22%20y%3D%22380%22%2F%3E%3C%2FArray%3E%3C%2FmxGeometry%3E%3C%2FmxCell%3E%3CmxCell%20id%3D%2222%22%20value%3D%22%E6%9C%89%EF%BC%8C%E8%8B%A5%E5%AD%98%E5%9C%A8%E8%B7%B3%E8%BD%AC%E7%BB%91%E5%AE%9A%E5%88%99%E6%9C%80%E4%BC%98%E5%85%88%EF%BC%8C%E8%8B%A5%E6%97%A0%E8%B7%B3%E8%BD%AC%E7%BB%91%E5%AE%9A%E5%88%99%E5%8F%96%E6%9C%80%E6%96%B0%E7%9A%84%22%20style%3D%22edgeLabel%3Bhtml%3D1%3Balign%3Dcenter%3BverticalAlign%3Dmiddle%3Bresizable%3D0%3Bpoints%3D%5B%5D%3B%22%20vertex%3D%221%22%20connectable%3D%220%22%20parent%3D%2221%22%3E%3CmxGeometry%20x%3D%220.2198%22%20y%3D%22-2%22%20relative%3D%221%22%20as%3D%22geometry%22%3E%3CmxPoint%20x%3D%22-52%22%20y%3D%22-2%22%20as%3D%22offset%22%2F%3E%3C%2FmxGeometry%3E%3C%2FmxCell%3E%3CmxCell%20id%3D%2223%22%20value%3D%22%E6%98%AF%E5%90%A6%E6%9C%89%E7%BB%91%E5%AE%9A%E5%A4%9A%E4%B8%AA%E4%B8%93%E9%A2%98%E9%A1%B5%22%20style%3D%22rhombus%3BwhiteSpace%3Dwrap%3Bhtml%3D1%3B%22%20vertex%3D%221%22%20parent%3D%221%22%3E%3CmxGeometry%20x%3D%22800%22%20y%3D%22410%22%20width%3D%22150%22%20height%3D%2280%22%20as%3D%22geometry%22%2F%3E%3C%2FmxCell%3E%3C%2Froot%3E%3C%2FmxGraphModel%3E&lt;/span&gt;/beta/roomid" style="rounded=0;whiteSpace=wrap;html=1;" vertex="1" parent="1">
          <mxGeometry x="595" y="310" width="120" height="60" as="geometry" />
        </mxCell>
        <mxCell id="_c1fTc9PCPGEMTXQCOkE-60" style="edgeStyle=orthogonalEdgeStyle;rounded=0;orthogonalLoop=1;jettySize=auto;html=1;" edge="1" parent="1" source="_c1fTc9PCPGEMTXQCOkE-54" target="_c1fTc9PCPGEMTXQCOkE-59">
          <mxGeometry relative="1" as="geometry" />
        </mxCell>
        <mxCell id="_c1fTc9PCPGEMTXQCOkE-54" value="客户端跳转至&lt;div&gt;/beta/topic/topicname?rid=roomid&lt;/div&gt;" style="rounded=0;whiteSpace=wrap;html=1;" vertex="1" parent="1">
          <mxGeometry x="577.5" y="1090" width="155" height="60" as="geometry" />
        </mxCell>
        <mxCell id="_c1fTc9PCPGEMTXQCOkE-63" value="" style="edgeStyle=orthogonalEdgeStyle;rounded=0;orthogonalLoop=1;jettySize=auto;html=1;" edge="1" parent="1" source="_c1fTc9PCPGEMTXQCOkE-56" target="_c1fTc9PCPGEMTXQCOkE-62">
          <mxGeometry relative="1" as="geometry" />
        </mxCell>
        <mxCell id="_c1fTc9PCPGEMTXQCOkE-56" value="客户端跳转至&lt;div&gt;/beta/topic/topicname&lt;/div&gt;" style="rounded=0;whiteSpace=wrap;html=1;" vertex="1" parent="1">
          <mxGeometry x="830" y="980" width="155" height="60" as="geometry" />
        </mxCell>
        <mxCell id="_c1fTc9PCPGEMTXQCOkE-59" value="通过roomid + topicname参数查询房间信息" style="rounded=0;whiteSpace=wrap;html=1;" vertex="1" parent="1">
          <mxGeometry x="595" y="1180" width="120" height="60" as="geometry" />
        </mxCell>
        <mxCell id="_c1fTc9PCPGEMTXQCOkE-62" value="新版专题页页面" style="whiteSpace=wrap;html=1;rounded=0;" vertex="1" parent="1">
          <mxGeometry x="847.5" y="1090" width="120" height="60" as="geometry" />
        </mxCell>
      </root>
    </mxGraphModel>
  </diagram>
</mxfile>
